<?xml version="1.0" encoding="utf-8"?>
<!-- Generator: Adobe Illustrator 21.1.0, SVG Export Plug-In . SVG Version: 6.00 Build 0)  -->
<svg version="1.1" id="Layer_1" xmlns="http://www.w3.org/2000/svg" xmlns:xlink="http://www.w3.org/1999/xlink" x="0px" y="0px"
	 viewBox="0 0 1000 1000" style="enable-background:new 0 0 1000 1000;" xml:space="preserve">
<g>
	<g transform="translate(0.000000,511.000000) scale(0.100000,-0.100000)">
		<path d="M3128.8,4807.5c-1605-115.7-2830-709.9-2997.9-1454.6c-27-117.7-30.9-495.8-30.9-3244.8c0-3406.8-5.8-3219.7,111.9-3437.7
			c84.9-156.3,314.5-383.9,540.2-534.3c428.3-285.5,985.8-499.7,1622.4-623.1c436-84.9,600-98.4,1159.4-96.5
			c590.3,1.9,910.6,27,1880.9,142.8c850.7,102.2,1167.1,131.2,1716.9,156.3c1062.9,48.2,2106.6-57.9,2505.9-254.6
			c140.8-69.5,171.7-69.5,221.8-5.8l40.5,52.1v3034.5v3034.5l-42.4,48.2c-77.2,84.9-839.2,260.4-1433.3,329.9
			c-275.9,32.8-1099.6,42.4-1325.3,17.4l-111.9-13.5v646.3c0,515.1-5.8,665.5-28.9,758.1c-140.8,534.4-804.4,999.3-1796,1253.9
			c-270.1,69.4-598,129.3-895.1,164C4074,4801.7,3310.1,4821,3128.8,4807.5z M4421.3,4522c980-137,1688-416.7,2068-817.9
			c69.4-73.3,150.5-185.2,181.3-246.9c50.2-100.3,55.9-135,55.9-297.1c0-169.8-3.9-191-65.6-308.7
			c-200.6-385.8-746.6-708-1535.6-906.7c-368.5-94.5-466.9-106.1-1205.7-154.3c-511.2-34.7-652-36.7-887.4-19.3
			c-1329.2,98.4-2338.1,522.8-2612,1097.7c-52.1,111.9-59.8,148.5-59.8,291.3c0,144.7,7.7,179.4,63.7,297.1
			c81,171.7,314.5,407.1,536.3,538.2c461.1,273.9,1124.7,464.9,1888.6,544C3182.8,4574.1,4112.6,4564.4,4421.3,4522z M755.9,2191.6
			c708-468.8,1888.6-731.1,2970.9-657.8c196.8,11.6,505.4,32.8,684.8,42.4c181.3,11.6,609.6,38.6,954.9,59.8
			c1612.7,98.4,2444.2,127.3,2797.2,98.4c441.8-38.6,1055.2-146.6,1385.1-245l100.3-30.9v-2862.8c0-1574.2-5.8-2862.8-11.6-2862.8
			s-83,21.2-169.8,48.2c-84.9,25.1-256.6,63.7-378.1,84.9c-453.3,77.2-659.8,88.7-1495.1,88.7c-891.3-1.9-1014.7-9.6-2147.1-144.7
			c-356.9-42.4-785.2-90.7-949.1-106.1c-428.3-42.4-1225-57.9-1541.4-30.8C1768.7-4220.8,717.4-3763.6,428-3225.4L360.5-3100
			l-5.8,2814.6l-3.9,2812.7l129.3-119.6C553.4,2342.1,676.9,2245.6,755.9,2191.6z M6716.9,1964c-11.6-7.7-165.9-19.3-343.4-27
			s-378.1-17.4-447.6-23.2l-125.4-11.6l202.6,104.2c254.6,129.2,439.8,250.8,600,397.4l123.5,115.8l5.8-272
			C6736.2,2066.2,6730.4,1971.7,6716.9,1964z"/>
		<path d="M3142.3,3787c-422.5-81-727.3-246.9-831.5-457.2c-88.8-177.5-52.1-322.2,121.5-484.2c123.5-115.7,318.3-210.3,571-275.9
			c171.7-46.3,229.6-52.1,520.9-54c204.5-1.9,370.4,7.7,443.7,23.1c555.6,121.5,877.8,366.5,854.6,650.1
			c-5.8,69.4-25.1,129.3-61.7,183.3c-108,162-397.4,322.2-721.5,397.4C3850.3,3812,3333.3,3821.7,3142.3,3787z M4033.5,3526.5
			c437.9-88.7,652.1-310.6,490-503.5c-65.6-77.2-277.8-179.4-466.8-223.8c-210.3-50.2-817.9-50.2-1030.2,0
			c-191,44.4-405.1,152.4-466.9,233.4C2285.7,3393.4,3196.3,3698.2,4033.5,3526.5z"/>
	</g>
</g>
</svg>
