<svg xmlns="http://www.w3.org/2000/svg" xmlns:xlink="http://www.w3.org/1999/xlink" xmlns:serif="http://www.serif.com/" version="1.1" xml:space="preserve" style="fill-rule:evenodd;clip-rule:evenodd;stroke-linejoin:round;stroke-miterlimit:2;" viewBox="30.89 30.9 626.01 562"><g transform="matrix(1,0,0,1,-156.098,-188.098)"><g transform="matrix(1,0,0,1,212,244)"><path d="M479.1,0C426.1,0 383.1,86.06 383.1,192.1C383.1,192.204 383.1,191.997 383.1,192.1C383.1,192.1 382.892,377.7 382.517,384L479.107,384C532.1,383.1 576,297.1 576,192C576,86 532.1,0 479.1,0ZM479.1,256C461.47,256 447.1,227.38 447.1,192C447.1,156.62 461.47,128 479.1,128C496.72,128 511.1,156.62 511.1,192C511.1,227.38 497.6,256 479.1,256ZM175.1,192C167.1,192 159.1,199.1 159.1,207.1C159.1,215.1 167.1,224 175.1,224C183.1,224 191.1,216.873 191.1,208C191.1,199.127 184.9,192 175.1,192ZM111.1,192C103.1,192 95.99,199.1 95.99,208C95.99,216.9 103.1,224 111.1,224C120.9,224 127.1,216.9 127.1,207.1C127.1,197.3 120.9,192 111.1,192ZM303.1,192C294.223,192 287.1,199.127 287.1,208C287.1,216.873 295.1,224 303.1,224C311.975,224 319.1,216.875 319.1,208C319.1,199.125 312.9,192 303.1,192ZM239.1,192C230.225,192 223.1,199.123 223.1,207.1C223.1,215.077 231.1,224 239.1,224C247.1,224 255.11,216.877 255.11,208.9C255.11,200.923 248.9,192 239.1,192Z" style="fill:white;fill-rule:nonzero;"/></g><g transform="matrix(1,0,0,1,212,244)"><path d="M479.1,0L127.1,0C74.98,0 31.98,86 31.98,192L31.98,364.1C31.98,405.23 22.23,426.85 0.85,491C-2.65,501.3 5.099,512 15.98,512L328.88,512C342.76,512 354.88,503.25 359.26,490.12C372.1,451.6 384,417.8 384,364.1L383.994,192C383.1,86.06 426.1,0 479.1,0ZM111.1,224C103.1,224 95.99,216.9 95.99,208C95.99,199.1 103.1,192 111.1,192C120.9,192 127.1,199.1 127.1,207.1C127.1,215.1 120.9,224 111.1,224ZM175.1,224C167.1,224 159.1,216.9 159.1,207.1C159.1,197.3 167.1,192 175.1,192C183.1,192 191.1,199.123 191.1,207.1C191.1,215.077 184.9,224 175.1,224ZM239.1,224C230.225,224 223.1,216.873 223.1,208C223.1,199.127 231.1,192 239.1,192C247.1,192 255.11,199.127 255.11,208C255.11,216.873 248.9,224 239.1,224ZM303.1,224C294.223,224 287.1,216.877 287.1,208.9C287.1,200.923 295.1,192 303.1,192C311.975,192 319.1,199.125 319.1,208C319.1,216.875 312.9,224 303.1,224Z" style="fill:rgb(217,218,237);fill-opacity:0.6;fill-rule:nonzero;"/></g><path d="M595.426,628C592.905,670.626 582.439,700.584 571.26,734.12C566.88,747.25 554.76,756 540.88,756L227.98,756C217.099,756 209.35,745.3 212.85,735C234.23,670.85 243.98,649.23 243.98,608.1L243.98,436C243.98,330 286.98,244 339.1,244L691.1,244C744.1,244 788,330 788,436C788,541.1 744.1,627.1 691.107,628L595.426,628ZM691.1,500C709.6,500 723.1,471.38 723.1,436C723.1,400.62 708.72,372 691.1,372C673.47,372 659.1,400.62 659.1,436C659.1,471.38 673.47,500 691.1,500Z" style="fill:white;fill-opacity:0;"/><path d="M618.141,653C613.702,686.409 604.664,712.966 594.976,742.028L594.975,742.031C587.176,765.412 565.597,781 540.88,781L227.98,781C200.04,781 180.223,753.488 189.151,727.04C209.213,666.851 218.98,646.706 218.98,608.1L218.98,436C218.98,366.575 236.589,305.191 262.396,267.047C283.64,235.646 310.999,219 339.1,219L691.1,219C719.526,219 747.152,235.63 768.687,266.866C795.014,305.052 813,366.499 813,436C813,504.92 795.038,566.146 768.71,604.456C747.284,635.631 719.81,652.516 691.319,653L618.141,653ZM595.426,628L691.107,628C744.1,627.1 788,541.1 788,436C788,330 744.1,244 691.1,244L339.1,244C286.98,244 243.98,330 243.98,436L243.98,608.1C243.98,649.23 234.23,670.85 212.85,735C209.35,745.3 217.099,756 227.98,756L540.88,756C554.76,756 566.88,747.25 571.26,734.12C582.439,700.584 592.905,670.626 595.426,628Z" style="fill:rgb(49,108,244);fill-opacity:0.77;"/></g></svg>