<?xml version="1.0" standalone="no"?>
<!DOCTYPE svg PUBLIC "-//W3C//DTD SVG 20010904//EN"
 "http://www.w3.org/TR/2001/REC-SVG-20010904/DTD/svg10.dtd">
<svg version="1.0" xmlns="http://www.w3.org/2000/svg"
 width="626.000000pt" height="626.000000pt" viewBox="0 0 626.000000 626.000000"
 preserveAspectRatio="xMidYMid meet">
<metadata>
Created by potrace 1.14, written by Peter Selinger 2001-2017
</metadata>
<g transform="translate(0.000000,626.000000) scale(0.100000,-0.100000)"
fill="#000000" stroke="none">
<path d="M1334 5920 c-248 -65 -478 -266 -656 -574 -138 -238 -259 -602 -313
-939 -47 -290 -48 -320 -55 -1492 -8 -1216 -4 -1136 -65 -1359 -13 -51 -75
-240 -136 -421 l-111 -328 4 -96 c3 -76 9 -107 29 -151 38 -81 118 -163 197
-202 l67 -33 1660 -3 c1228 -2 1674 0 1715 8 130 28 262 119 342 235 39 58 60
107 117 280 82 248 132 431 164 610 l24 130 414 6 c376 6 421 8 487 27 516
145 892 758 1018 1662 25 181 31 673 9 880 -95 937 -495 1628 -1019 1760 -78
20 -113 20 -1950 19 -1793 0 -1874 -1 -1942 -19z m3893 -272 c200 -84 372
-276 512 -569 134 -281 220 -622 252 -997 13 -160 7 -618 -10 -742 -82 -587
-257 -1018 -515 -1275 -99 -98 -174 -148 -275 -182 -65 -22 -74 -22 -586 -23
l-520 0 2 232 c2 128 4 638 6 1133 4 974 4 963 63 1268 63 321 173 606 320
829 61 92 211 243 285 286 106 62 150 73 284 69 102 -3 129 -7 182 -29z
m-3791 -1894 c103 -49 111 -205 13 -275 -47 -33 -116 -37 -158 -7 -58 39 -76
72 -76 138 0 44 5 66 21 87 51 69 128 91 200 57z m659 -18 c67 -52 84 -128 42
-200 -30 -54 -67 -78 -124 -83 -121 -10 -212 129 -155 237 42 79 163 102 237
46z m641 -1 c128 -98 52 -298 -109 -282 -81 7 -137 64 -144 144 -11 135 145
220 253 138z m632 8 c68 -51 92 -144 54 -213 -52 -95 -193 -106 -265 -21 -62
74 -36 184 57 243 39 24 115 20 154 -9z"/>
</g>
</svg>
